Coordinates
version=1
nRows=34
nColumns=34
inDegrees=no

Units are S.I. units (second, meters, Newtons, ...)
If the header above contains a line with 'inDegrees', this indicates whether rotational values are in degrees (yes) or radians (no).

endheader
time	pelvis_tilt	pelvis_list	pelvis_rotation	pelvis_tx	pelvis_ty	pelvis_tz	hip_flexion_r	hip_adduction_r	hip_rotation_r	knee_angle_r	ankle_angle_r	subtalar_angle_r	mtp_angle_r	hip_flexion_l	hip_adduction_l	hip_rotation_l	knee_angle_l	ankle_angle_l	subtalar_angle_l	mtp_angle_l	lumbar_extension	lumbar_bending	lumbar_rotation	arm_flex_r	arm_add_r	arm_rot_r	elbow_flex_r	pro_sup_r	arm_flex_l	arm_add_l	arm_rot_l	elbow_flex_l	pro_sup_l
170.019	0.352441	0.189018	3.02053	0.643527	0.690296	0.143005	0.0212485	-0.425763	-0.663064	0.366914	0.441141	0.305537	0	1.41046	-0.834502	-0.257827	1.58311	0.410758	-0.0922764	0	0.14903	0.142854	0.252341	4.55623	-1.07531	3.98883	0.618106	1.47143	1.37426	-0.527486	0.00593214	0.977005	2.09
170.039	0.351337	0.189034	3.02085	0.64302	0.690695	0.143564	0.0134647	-0.422145	-0.667432	0.353512	0.435996	0.310422	0	1.40701	-0.83374	-0.259372	1.58272	0.412032	-0.092059	0	0.148279	0.142328	0.251608	4.56117	-1.07623	3.99342	0.615365	1.47264	1.37645	-0.527523	0.00665526	0.968419	2.09
170.059	0.350275	0.189021	3.02117	0.642554	0.691091	0.144006	0.00603235	-0.418579	-0.671602	0.340689	0.430995	0.315369	0	1.40371	-0.833018	-0.260809	1.58219	0.413089	-0.0920476	0	0.147555	0.141731	0.250876	4.56626	-1.0773	3.99825	0.612436	1.4737	1.3788	-0.527644	0.00746381	0.959505	2.09
170.079	0.349166	0.189008	3.02146	0.642118	0.691491	0.144331	-0.00120677	-0.415024	-0.675667	0.328327	0.426134	0.320508	0	1.40049	-0.83239	-0.262108	1.58154	0.413953	-0.0921687	0	0.146766	0.141094	0.250169	4.5714	-1.07849	4.0032	0.609407	1.47469	1.38131	-0.527795	0.0083125	0.950254	2.09
170.099	0.347929	0.189019	3.02178	0.641702	0.691901	0.144543	-0.00843048	-0.411424	-0.679697	0.316271	0.421411	0.325869	0	1.39728	-0.831876	-0.263231	1.58081	0.414644	-0.0923438	0	0.145847	0.140447	0.249495	4.57647	-1.07974	4.00815	0.606389	1.47568	1.38398	-0.527915	0.00918581	0.940679	2.09
170.119	0.346517	0.189063	3.02216	0.641295	0.69232	0.144651	-0.0157746	-0.407733	-0.68369	0.304378	0.41682	0.331347	0	1.39405	-0.831447	-0.26416	1.58003	0.415177	-0.0925216	0	0.144775	0.139809	0.248843	4.58141	-1.081	4.013	0.603482	1.47671	1.38679	-0.527949	0.0101039	0.930812	2.09
170.139	0.344929	0.189124	3.02267	0.640887	0.692751	0.144671	-0.0232867	-0.403938	-0.687551	0.292576	0.412358	0.336707	0	1.39076	-0.831042	-0.264907	1.57921	0.415561	-0.0926973	0	0.143573	0.13918	0.248199	4.58612	-1.08219	4.01768	0.60075	1.47779	1.38972	-0.527865	0.0111153	0.920695	2.09
170.159	0.343206	0.189163	3.02331	0.640478	0.693188	0.144622	-0.0309031	-0.40008	-0.691095	0.280894	0.408034	0.341627	0	1.38743	-0.830584	-0.265524	1.57835	0.415804	-0.0929148	0	0.1423	0.138548	0.247552	4.59054	-1.08328	4.02211	0.598209	1.47892	1.39275	-0.527656	0.012279	0.910374	2.09
170.179	0.34142	0.189129	3.02407	0.640072	0.69363	0.144518	-0.0384632	-0.396242	-0.694085	0.269463	0.403868	0.345767	0	1.38407	-0.830009	-0.26609	1.57745	0.415907	-0.0932489	0	0.141032	0.137894	0.246911	4.5946	-1.08428	4.02626	0.595825	1.48007	1.39588	-0.527349	0.0136461	0.899894	2.09
170.199	0.339647	0.188971	3.02492	0.639677	0.694072	0.144371	-0.0457569	-0.392542	-0.696307	0.258494	0.399901	0.348854	0	1.3807	-0.829288	-0.266695	1.57648	0.415874	-0.0937737	0	0.139831	0.137194	0.246298	4.59825	-1.08523	4.03008	0.59354	1.48122	1.3991	-0.526988	0.0152474	0.889297	2.09
170.219	0.337946	0.188646	3.0258	0.639307	0.694511	0.144189	-0.0525835	-0.389113	-0.697665	0.248226	0.396189	0.350772	0	1.37733	-0.828428	-0.267432	1.57543	0.415703	-0.0945331	0	0.138731	0.136426	0.245743	4.60147	-1.08618	4.03353	0.591295	1.48241	1.40243	-0.526627	0.0170859	0.878637	2.09
170.239	0.336348	0.188119	3.02665	0.638972	0.694943	0.143974	-0.0587905	-0.386102	-0.698331	0.238902	0.3928	0.351653	0	1.37393	-0.827452	-0.26839	1.5743	0.415397	-0.0955327	0	0.137735	0.135557	0.245269	4.60426	-1.08719	4.03663	0.589061	1.48367	1.40585	-0.526314	0.0191283	0.867992	2.09
170.259	0.334847	0.187367	3.02747	0.638682	0.695368	0.143728	-0.0643143	-0.383627	-0.698549	0.230684	0.389796	0.351752	0	1.37046	-0.826388	-0.269652	1.57306	0.414958	-0.0967366	0	0.136812	0.134551	0.244884	4.60665	-1.08828	4.03941	0.586851	1.48502	1.40937	-0.526071	0.0213158	0.857456	2.09
170.279	0.33341	0.18638	3.02824	0.63844	0.695787	0.143452	-0.0691797	-0.381747	-0.698531	0.223619	0.38722	0.351335	0	1.36685	-0.825263	-0.27129	1.57172	0.414394	-0.0980848	0	0.135912	0.133378	0.24459	4.60872	-1.08948	4.04194	0.584717	1.48647	1.41294	-0.525893	0.0235762	0.847124	2.09
170.299	0.331996	0.18516	3.029	0.638246	0.696205	0.143149	-0.0734651	-0.380465	-0.698422	0.21765	0.385084	0.350611	0	1.36304	-0.82409	-0.273358	1.57025	0.413718	-0.0995166	0	0.134989	0.132019	0.244382	4.61054	-1.09074	4.0443	0.582722	1.48796	1.41652	-0.525748	0.0258393	0.837073	2.09
170.319	0.330582	0.183724	3.02974	0.638097	0.696629	0.142824	-0.0772514	-0.379741	-0.698305	0.212669	0.38337	0.349725	0	1.35896	-0.822873	-0.275877	1.56864	0.412948	-0.100989	0	0.134019	0.130472	0.244256	4.6122	-1.09204	4.04659	0.580919	1.48939	1.42007	-0.525593	0.0280572	0.827351	2.09
170.339	0.32917	0.182095	3.03047	0.637991	0.697064	0.142478	-0.0805855	-0.379509	-0.698213	0.208553	0.382033	0.348766	0	1.35461	-0.821617	-0.278832	1.56687	0.4121	-0.102483	0	0.133015	0.128753	0.244216	4.61378	-1.09337	4.04889	0.57932	1.49064	1.42355	-0.525391	0.0302211	0.817955	2.09
170.359	0.327789	0.180313	3.03117	0.637923	0.697516	0.142113	-0.0834739	-0.379688	-0.698156	0.205197	0.381012	0.3478	0	1.35005	-0.820346	-0.282162	1.56493	0.411185	-0.103992	0	0.132013	0.126901	0.244268	4.61531	-1.0947	4.05128	0.577895	1.49163	1.42694	-0.525129	0.0323697	0.80883	2.09
170.379	0.326473	0.178427	3.03178	0.637892	0.697989	0.141725	-0.0859058	-0.380189	-0.698127	0.202514	0.380241	0.346879	0	1.34537	-0.819106	-0.285766	1.56283	0.41021	-0.105511	0	0.131057	0.124967	0.244422	4.61679	-1.09607	4.0538	0.576568	1.49231	1.43026	-0.524821	0.0345848	0.799878	2.09
170.399	0.325247	0.176493	3.03226	0.637893	0.698485	0.141312	-0.0878812	-0.38092	-0.698116	0.200426	0.379658	0.346051	0	1.34066	-0.817951	-0.289515	1.56062	0.409176	-0.107032	0	0.130184	0.123008	0.244671	4.61819	-1.09749	4.05648	0.575249	1.49271	1.43354	-0.524505	0.0369712	0.790983	2.09
170.419	0.324118	0.174568	3.0326	0.637924	0.699003	0.140868	-0.0894366	-0.381789	-0.698116	0.19885	0.379214	0.345343	0	1.33604	-0.816921	-0.293269	1.55832	0.408078	-0.108553	0	0.129417	0.121078	0.244991	4.61948	-1.09902	4.05932	0.573849	1.49285	1.43683	-0.524228	0.0396292	0.782052	2.09
170.439	0.323066	0.1727	3.03282	0.637979	0.699539	0.140392	-0.090656	-0.382714	-0.69812	0.197692	0.378874	0.344765	0	1.33159	-0.816025	-0.296896	1.55598	0.406908	-0.110073	0	0.128756	0.119214	0.245334	4.62064	-1.10068	4.06229	0.57231	1.4928	1.44018	-0.524032	0.0426318	0.773041	2.09
170.459	0.322046	0.17092	3.03295	0.638055	0.700087	0.139885	-0.0916635	-0.383631	-0.698124	0.196857	0.378622	0.3443	0	1.32733	-0.815241	-0.30029	1.55365	0.405659	-0.111604	0	0.12818	0.117433	0.245641	4.62166	-1.10247	4.06534	0.570616	1.49261	1.44359	-0.523942	0.0460085	0.763974	2.09
170.479	0.320996	0.169244	3.03308	0.638144	0.700646	0.139349	-0.092597	-0.3845	-0.698127	0.196261	0.378458	0.343903	0	1.32327	-0.814513	-0.30339	1.55135	0.404331	-0.113173	0	0.127652	0.115732	0.245853	4.62259	-1.10439	4.06845	0.568793	1.4923	1.44704	-0.52396	0.0497389	0.754934	2.09
170.499	0.31985	0.167664	3.03325	0.638245	0.701212	0.138789	-0.0935812	-0.385311	-0.698127	0.195853	0.378393	0.343511	0	1.31934	-0.813767	-0.306192	1.54909	0.402922	-0.114818	0	0.127125	0.114086	0.24592	4.62352	-1.1064	4.07162	0.566897	1.49187	1.45052	-0.524065	0.0537549	0.746031	2.09
170.519	0.318545	0.166158	3.03355	0.638357	0.701787	0.138212	-0.0947076	-0.386084	-0.698126	0.195617	0.37844	0.343052	0	1.31544	-0.812927	-0.308744	1.54684	0.401439	-0.116584	0	0.126542	0.112459	0.245818	4.62454	-1.10845	4.07487	0.56499	1.49128	1.45396	-0.524222	0.0579543	0.737365	2.09
170.539	0.317024	0.164697	3.034	0.638484	0.702378	0.137622	-0.0960275	-0.386858	-0.698124	0.195572	0.37861	0.342459	0	1.31144	-0.81193	-0.311136	1.54456	0.399888	-0.118512	0	0.125844	0.110813	0.245545	4.62574	-1.11053	4.07826	0.563115	1.4905	1.45734	-0.524386	0.0622216	0.729	2.09
170.559	0.315232	0.163249	3.03461	0.638631	0.702994	0.137022	-0.0975656	-0.387679	-0.698123	0.195756	0.378912	0.341687	0	1.3072	-0.810744	-0.313481	1.54219	0.398271	-0.12062	0	0.124958	0.109112	0.245121	4.62718	-1.11261	4.08187	0.561284	1.48948	1.46064	-0.524517	0.0664639	0.720943	2.09
170.579	0.31312	0.161791	3.03538	0.638807	0.703645	0.136412	-0.0993231	-0.388589	-0.698126	0.196224	0.379353	0.340718	0	1.30258	-0.809371	-0.315881	1.53968	0.396586	-0.122891	0	0.123805	0.10733	0.244584	4.6289	-1.1147	4.08576	0.559477	1.48821	1.46388	-0.524588	0.0706347	0.71315	2.09
170.599	0.310649	0.160311	3.03627	0.639024	0.704343	0.135789	-0.101279	-0.389624	-0.698137	0.197032	0.379942	0.339567	0	1.2975	-0.807849	-0.318401	1.53699	0.394823	-0.125264	0	0.122314	0.105462	0.24398	4.63089	-1.11684	4.08998	0.557654	1.48672	1.46707	-0.524591	0.0747518	0.705541	2.09
170.619	0.307797	0.15881	3.03724	0.639294	0.705097	0.135149	-0.10339	-0.390805	-0.698162	0.198245	0.380689	0.338284	0	1.29193	-0.806249	-0.321057	1.5341	0.392966	-0.127642	0	0.120427	0.10352	0.243361	4.63312	-1.11906	4.09453	0.555771	1.48504	1.47027	-0.524539	0.0788902	0.698024	2.09
170.639	0.30457	0.157297	3.03825	0.639629	0.705911	0.134483	-0.105583	-0.39215	-0.698204	0.199928	0.381606	0.336939	0	1.28588	-0.804648	-0.323834	1.53103	0.390994	-0.129916	0	0.118122	0.101528	0.242772	4.63554	-1.12139	4.09935	0.553803	1.48323	1.47349	-0.524458	0.0831582	0.690515	2.09
170.659	0.301004	0.155779	3.03924	0.640042	0.706788	0.133787	-0.107759	-0.393679	-0.698264	0.202147	0.382702	0.335603	0	1.27942	-0.803113	-0.326703	1.52778	0.388888	-0.132001	0	0.115411	0.099515	0.242246	4.63808	-1.12385	4.10435	0.551753	1.48133	1.47677	-0.524384	0.0876662	0.682944	2.09
170.679	0.297164	0.154253	3.04018	0.640544	0.707726	0.133053	-0.109796	-0.395416	-0.698328	0.204963	0.383984	0.334328	0	1.27263	-0.80168	-0.32965	1.52435	0.386624	-0.133853	0	0.112346	0.0975029	0.241798	4.6407	-1.12648	4.10943	0.54965	1.47938	1.4801	-0.524356	0.0925036	0.675267	2.09
